<svg xmlns="http://www.w3.org/2000/svg" viewBox="0 0 2000.000000 2000.000000">
<rect width="2000" height="2000" rx="400" fill="#0a0a0a" />  
<g transform="translate(0.000000,2000.000000) scale(0.100000,-0.100000)" fill="#d4d4d8" stroke="none">
<path d="M2433 17660 c-69 -8 -90 -20 -109 -66 -10 -25 -11 -44 -2 -92 11 -62
10 -91 -24 -362 -16 -121 -15 -699 1 -1000 6 -124 16 -333 20 -465 5 -132 12
-256 15 -275 4 -19 8 -222 10 -450 4 -351 8 -442 26 -590 22 -175 33 -214 74
-258 49 -55 54 -56 426 -57 357 -2 645 -24 794 -61 33 -8 102 -19 155 -24 100
-11 152 -22 213 -45 39 -15 237 -47 394 -64 54 -6 116 -20 153 -35 35 -14 87
-30 116 -35 29 -5 93 -26 144 -45 50 -20 93 -36 97 -36 3 0 40 -15 83 -34 42
-18 128 -48 191 -66 153 -43 512 -174 760 -277 142 -60 366 -173 455 -231 40
-26 86 -55 101 -64 16 -10 61 -38 99 -63 39 -25 92 -58 118 -73 26 -15 70 -43
97 -62 27 -19 78 -55 112 -78 386 -267 765 -590 1034 -882 151 -164 189 -208
262 -301 40 -52 93 -119 118 -149 94 -116 131 -165 201 -268 39 -59 82 -120
95 -136 13 -16 34 -49 48 -72 14 -24 57 -94 95 -156 39 -62 81 -134 95 -161
14 -26 47 -87 73 -135 54 -97 117 -244 171 -401 20 -57 58 -154 85 -215 27
-61 52 -127 56 -146 4 -19 19 -57 32 -84 29 -58 97 -269 112 -346 14 -75 79
-358 91 -395 5 -16 18 -79 30 -140 11 -60 29 -148 40 -195 11 -49 31 -208 45
-373 25 -285 25 -292 10 -544 -8 -140 -19 -307 -25 -371 -5 -64 -14 -182 -20
-262 -6 -80 -17 -170 -25 -200 -8 -30 -24 -105 -35 -167 -11 -62 -29 -135 -40
-162 -10 -28 -33 -116 -50 -197 -17 -80 -43 -176 -59 -213 -16 -36 -35 -86
-41 -111 -7 -25 -20 -61 -30 -81 -10 -20 -54 -143 -98 -275 -122 -368 -257
-626 -487 -932 -38 -52 -81 -111 -95 -131 -28 -42 -93 -123 -155 -192 -22 -25
-51 -58 -65 -75 -13 -16 -49 -58 -80 -94 -31 -36 -66 -78 -79 -95 -43 -57
-196 -220 -275 -295 -44 -41 -121 -113 -170 -160 -86 -81 -241 -215 -313 -270
-17 -14 -69 -54 -115 -90 -83 -65 -243 -177 -341 -237 -29 -17 -79 -50 -112
-74 -71 -51 -239 -137 -347 -179 -43 -17 -104 -42 -135 -56 -142 -64 -464
-180 -568 -204 -44 -10 -118 -28 -165 -39 -217 -52 -275 -64 -410 -82 -80 -11
-196 -29 -259 -39 -62 -11 -132 -20 -155 -20 -22 0 -93 -7 -156 -15 -64 -9
-167 -14 -232 -13 -114 3 -118 2 -143 -23 -32 -31 -56 -105 -44 -136 4 -12 23
-30 41 -39 30 -16 80 -18 488 -23 621 -7 792 -7 1648 1 408 4 747 10 753 13
17 11 1329 17 2309 11 1663 -11 3981 -3 4120 14 106 12 231 12 290 -1 57 -12
574 -29 1013 -33 331 -3 339 -3 370 18 47 32 49 81 5 132 -55 62 -90 72 -273
72 -93 0 -202 7 -260 15 -55 9 -147 21 -205 27 -220 23 -278 32 -365 55 -49
13 -122 28 -162 34 -39 6 -108 24 -153 41 -45 16 -89 30 -99 30 -19 0 -192 49
-281 79 -53 18 -219 83 -385 151 -118 48 -360 171 -436 221 -37 24 -88 57
-115 72 -79 45 -147 88 -223 142 -38 28 -116 82 -172 120 -56 39 -123 88 -148
111 -25 22 -89 75 -141 116 -194 155 -733 754 -896 996 -157 234 -205 313
-272 447 -81 160 -232 496 -249 550 -8 28 -24 66 -35 85 -12 19 -40 82 -63
140 -48 118 -102 244 -146 340 -16 36 -38 106 -49 155 -11 50 -29 124 -41 165
-47 169 -117 542 -129 689 -5 67 -12 127 -15 131 -16 26 -25 203 -26 509 0
286 2 358 16 414 8 38 22 137 30 222 8 84 21 179 29 211 8 33 18 82 21 109 14
105 47 272 66 330 10 33 28 101 39 150 34 160 155 498 254 713 25 53 56 124
69 157 50 122 99 232 128 287 16 31 36 79 45 107 8 28 19 53 24 56 6 4 24 34
42 68 17 34 41 76 53 92 13 17 32 50 43 75 26 54 88 159 133 220 18 25 68 97
111 160 127 187 331 455 457 600 230 265 584 598 841 789 69 52 137 104 151
118 14 13 56 45 92 71 36 26 99 72 139 103 88 68 330 228 430 285 110 63 363
192 453 231 217 95 424 182 475 200 25 9 54 22 65 28 29 18 357 136 510 184
72 22 170 48 219 56 49 9 118 27 153 41 37 13 129 33 212 45 80 11 189 31 241
44 58 15 169 30 285 40 105 8 264 25 355 36 132 16 246 20 570 24 223 2 427 8
454 13 83 16 84 21 85 255 1 111 6 274 11 362 19 304 29 624 35 1101 3 263 10
702 16 974 11 452 10 500 -5 550 -12 41 -16 89 -15 188 2 134 2 134 -28 164
-37 37 -95 51 -160 39 -26 -5 -140 -12 -253 -16 -215 -6 -321 -18 -585 -64
-174 -31 -598 -136 -682 -170 -29 -11 -94 -32 -145 -46 -50 -15 -105 -34 -122
-42 -17 -9 -74 -29 -126 -44 -128 -38 -267 -84 -370 -124 -47 -18 -98 -35
-115 -39 -16 -4 -71 -25 -122 -47 -51 -21 -97 -39 -103 -39 -27 0 -753 -360
-859 -427 -97 -59 -260 -169 -323 -216 -72 -54 -317 -242 -371 -285 -23 -18
-58 -45 -78 -60 -238 -181 -908 -880 -1070 -1118 -32 -46 -78 -108 -102 -137
-24 -29 -63 -81 -87 -117 -24 -36 -62 -87 -85 -115 -23 -27 -50 -63 -60 -80
-10 -16 -53 -82 -95 -145 -43 -63 -87 -135 -100 -160 -12 -24 -37 -65 -54 -91
-17 -26 -48 -76 -69 -111 -117 -192 -113 -184 -321 -609 -53 -108 -96 -200
-96 -206 0 -6 -9 -22 -21 -37 -21 -27 -73 -152 -139 -338 -22 -59 -46 -120
-54 -137 -9 -17 -23 -60 -32 -97 -8 -37 -24 -84 -35 -106 -27 -52 -241 -699
-273 -824 -14 -54 -46 -160 -71 -234 -72 -214 -83 -250 -99 -335 -8 -44 -24
-123 -35 -175 -36 -172 -75 -436 -91 -624 -11 -130 -46 -340 -61 -368 -24 -44
-43 -12 -59 97 -47 321 -116 725 -141 825 -10 41 -23 116 -29 165 -6 50 -23
122 -36 160 -14 39 -36 109 -49 156 -13 48 -36 117 -49 154 -14 36 -32 108
-40 158 -19 116 -56 269 -101 417 -19 63 -51 168 -70 233 -20 64 -47 148 -61
185 -14 37 -39 104 -55 150 -15 46 -37 98 -47 115 -11 18 -32 70 -47 117 -16
47 -39 110 -53 140 -13 30 -32 82 -43 115 -10 33 -29 76 -42 95 -13 19 -32 58
-42 85 -10 28 -26 61 -36 75 -9 14 -54 99 -99 190 -46 91 -103 203 -128 250
-25 47 -63 121 -85 165 -21 44 -51 98 -67 120 -32 47 -136 208 -206 318 -27
43 -66 104 -86 135 -21 31 -50 80 -64 107 -30 55 -131 205 -208 305 -175 229
-414 478 -703 732 -61 54 -164 148 -229 210 -165 157 -316 287 -453 390 -113
87 -454 318 -468 318 -3 0 -29 15 -56 33 -88 57 -696 367 -902 460 -191 86
-343 147 -406 163 -35 9 -77 23 -92 31 -15 7 -65 23 -110 34 -45 11 -111 33
-147 49 -36 16 -101 38 -146 49 -44 11 -105 31 -135 44 -30 13 -81 27 -114 30
-33 4 -106 22 -163 42 -109 37 -278 75 -334 75 -18 0 -87 11 -153 25 -66 14
-169 29 -230 35 -60 5 -166 17 -235 25 -130 15 -300 17 -407 5z m3353 -2716
c32 -14 73 -39 91 -55 19 -16 38 -29 43 -29 6 0 39 -28 73 -62 35 -35 92 -85
125 -112 59 -47 78 -76 49 -76 -8 0 -29 11 -48 25 -73 54 -136 95 -174 113
-22 11 -62 39 -90 64 -27 25 -65 53 -82 62 -41 20 -83 96 -54 96 5 0 35 -12
67 -26z m-2203 -5 c39 -10 74 -50 62 -70 -8 -12 -87 -4 -117 12 -21 11 -23 40
-6 57 14 14 14 14 61 1z"/>
</g>
</svg>